<mxfile host="app.diagrams.net" modified="2022-02-17T09:27:58.804Z" agent="5.0 (Macintosh; Intel Mac OS X 10_15_7) AppleWebKit/537.36 (KHTML, like Gecko) Chrome/98.0.4758.80 Safari/537.36" etag="1mBoJLk8h07WiOHCNWQ6" version="16.1.0" type="github">
  <diagram id="o1IeNjWsJHhQlEf4HJjg" name="Page-1">
    <mxGraphModel dx="1298" dy="841" grid="1" gridSize="10" guides="1" tooltips="1" connect="1" arrows="1" fold="1" page="1" pageScale="1" pageWidth="827" pageHeight="1169" math="0" shadow="0">
      <root>
        <mxCell id="0" />
        <mxCell id="1" parent="0" />
        <mxCell id="6EkBE7qP1CggEPcbW--e-3" style="edgeStyle=orthogonalEdgeStyle;rounded=0;orthogonalLoop=1;jettySize=auto;html=1;exitX=0.5;exitY=0;exitDx=0;exitDy=0;entryX=0;entryY=0.5;entryDx=0;entryDy=0;" edge="1" parent="1" source="6EkBE7qP1CggEPcbW--e-1" target="6EkBE7qP1CggEPcbW--e-2">
          <mxGeometry relative="1" as="geometry" />
        </mxCell>
        <mxCell id="6EkBE7qP1CggEPcbW--e-1" value="广告" style="rounded=0;whiteSpace=wrap;html=1;" vertex="1" parent="1">
          <mxGeometry x="160" y="370" width="120" height="60" as="geometry" />
        </mxCell>
        <mxCell id="6EkBE7qP1CggEPcbW--e-6" style="edgeStyle=orthogonalEdgeStyle;rounded=0;orthogonalLoop=1;jettySize=auto;html=1;exitX=1;exitY=0.5;exitDx=0;exitDy=0;entryX=0;entryY=0.5;entryDx=0;entryDy=0;" edge="1" parent="1" source="6EkBE7qP1CggEPcbW--e-2" target="6EkBE7qP1CggEPcbW--e-5">
          <mxGeometry relative="1" as="geometry" />
        </mxCell>
        <mxCell id="6EkBE7qP1CggEPcbW--e-2" value="召回" style="rounded=0;whiteSpace=wrap;html=1;" vertex="1" parent="1">
          <mxGeometry x="354" y="250" width="120" height="60" as="geometry" />
        </mxCell>
        <mxCell id="6EkBE7qP1CggEPcbW--e-12" style="edgeStyle=orthogonalEdgeStyle;rounded=0;orthogonalLoop=1;jettySize=auto;html=1;exitX=1;exitY=0.5;exitDx=0;exitDy=0;" edge="1" parent="1" source="6EkBE7qP1CggEPcbW--e-5" target="6EkBE7qP1CggEPcbW--e-8">
          <mxGeometry relative="1" as="geometry" />
        </mxCell>
        <mxCell id="6EkBE7qP1CggEPcbW--e-5" value="向量" style="rounded=0;whiteSpace=wrap;html=1;" vertex="1" parent="1">
          <mxGeometry x="540" y="170" width="120" height="60" as="geometry" />
        </mxCell>
        <mxCell id="6EkBE7qP1CggEPcbW--e-7" value="faiss" style="swimlane;fontStyle=0;childLayout=stackLayout;horizontal=1;startSize=30;horizontalStack=0;resizeParent=1;resizeParentMax=0;resizeLast=0;collapsible=1;marginBottom=0;" vertex="1" parent="1">
          <mxGeometry x="750" y="155" width="140" height="120" as="geometry" />
        </mxCell>
        <mxCell id="6EkBE7qP1CggEPcbW--e-8" value="https://zhuanlan.zhihu.com/p/357414033" style="text;strokeColor=none;fillColor=none;align=left;verticalAlign=middle;spacingLeft=4;spacingRight=4;overflow=hidden;points=[[0,0.5],[1,0.5]];portConstraint=eastwest;rotatable=0;" vertex="1" parent="6EkBE7qP1CggEPcbW--e-7">
          <mxGeometry y="30" width="140" height="30" as="geometry" />
        </mxCell>
        <mxCell id="6EkBE7qP1CggEPcbW--e-9" value="https://zhuanlan.zhihu.com/p/356373517" style="text;strokeColor=none;fillColor=none;align=left;verticalAlign=middle;spacingLeft=4;spacingRight=4;overflow=hidden;points=[[0,0.5],[1,0.5]];portConstraint=eastwest;rotatable=0;" vertex="1" parent="6EkBE7qP1CggEPcbW--e-7">
          <mxGeometry y="60" width="140" height="30" as="geometry" />
        </mxCell>
        <mxCell id="6EkBE7qP1CggEPcbW--e-10" value="Item 3" style="text;strokeColor=none;fillColor=none;align=left;verticalAlign=middle;spacingLeft=4;spacingRight=4;overflow=hidden;points=[[0,0.5],[1,0.5]];portConstraint=eastwest;rotatable=0;" vertex="1" parent="6EkBE7qP1CggEPcbW--e-7">
          <mxGeometry y="90" width="140" height="30" as="geometry" />
        </mxCell>
      </root>
    </mxGraphModel>
  </diagram>
</mxfile>
